<svg xmlns="http://www.w3.org/2000/svg" width="46" height="46" viewBox="-0.32 5.35 46 46"><path fill="none" stroke="#b97d1c" stroke-linecap="round" stroke-linejoin="round" stroke-width="1.644" d="M6.803 6.803h31.748v17.008c0 11.339-6.803 20.41-15.874 26.079-9.07-5.67-15.874-14.74-15.874-26.079zm11.339 23.244c1.7-2.267-1.701-4.535 0-7.37 1.7-2.834-1.134-5.102 0-7.937m4.535 15.307c1.701-2.267-1.7-4.535 0-7.37 1.701-2.834-1.134-5.102 0-7.937m4.536 15.307c1.7-2.267-1.701-4.535 0-7.37 1.7-2.834-1.134-5.102 0-7.937M14.74 34.016c.85 6.236 15.024 6.236 15.874 0m.567 0c0 1.252-3.807 2.267-8.504 2.267s-8.504-1.015-8.504-2.267 3.807-2.268 8.504-2.268 8.504 1.015 8.504 2.268 0-1.253 0 0"/></svg>
