<svg xmlns="http://www.w3.org/2000/svg" xmlns:xlink="http://www.w3.org/1999/xlink" width="278.24" height="43.09" viewBox="6.8 6.8 278.24 43.09"><path fill="none" stroke="#b97d1c" stroke-linecap="round" stroke-linejoin="round" stroke-width="1.644" d="M6.803 6.803h31.748v17.008c0 11.339-6.803 20.41-15.874 26.079-9.07-5.67-15.874-14.74-15.874-26.079zm11.339 23.244c1.7-2.267-1.701-4.535 0-7.37 1.7-2.834-1.134-5.102 0-7.937m4.535 15.307c1.701-2.267-1.7-4.535 0-7.37 1.701-2.834-1.134-5.102 0-7.937m4.536 15.307c1.7-2.267-1.701-4.535 0-7.37 1.7-2.834-1.134-5.102 0-7.937M14.74 34.016c.85 6.236 15.024 6.236 15.874 0m.567 0c0 1.252-3.807 2.267-8.504 2.267s-8.504-1.015-8.504-2.267 3.807-2.268 8.504-2.268 8.504 1.015 8.504 2.268 0-1.253 0 0"/><g fill="#1a1a1a" transform="matrix(1 0 0 -1 53.858 39.191)"><use xlink:href="#a"/><use xlink:href="#b" x="20.28"/><use xlink:href="#c" x="28.785"/><use xlink:href="#d" x="45.825"/></g><use xlink:href="#e" fill="#b97d1c" transform="matrix(1 0 0 -1 125.613 39.191)"/><g fill="#1a1a1a" transform="matrix(1 0 0 -1 137.383 39.191)"><use xlink:href="#f" x="7.14"/><use xlink:href="#g" x="28.35"/><use xlink:href="#h" x="45.795"/><use xlink:href="#i" x="53.37"/><use xlink:href="#j" x="68.295"/><use xlink:href="#k" x="85.38"/><use xlink:href="#l" x="97.185"/><use xlink:href="#h" x="112.53"/><use xlink:href="#m" x="120.105"/><use xlink:href="#n" x="132"/></g><defs><symbol id="a" overflow="visible"><path d="M10.305-.3q-2.115 0-3.99.69T3.187 2.453 1.665 5.88H5.01q.39-1.755 1.875-2.662Q8.37 2.31 10.47 2.31q1.275 0 2.377.398 1.103.397 1.778 1.17T15.3 5.76q0 1.245-.833 1.973-.832.727-2.497 1.162l-4.35 1.08q-2.385.555-3.84 1.89t-1.455 3.87q0 1.89 1.042 3.285t2.835 2.168 4.058.772q2.595 0 4.372-.885 1.778-.885 2.7-2.332.923-1.448.938-3.143H15q-.135 1.38-.818 2.198-.682.817-1.732 1.177t-2.295.36q-2.22 0-3.338-.982Q5.7 17.37 5.7 16.02q0-1.245.81-1.965t2.43-1.11l4.2-1.035q2.97-.675 4.192-2.242 1.223-1.568 1.223-3.623 0-1.86-1.035-3.285T14.632.518 10.305-.3"/></symbol><symbol id="b" overflow="visible"><path d="M6.375-.21q-1.845 0-2.737.615T2.46 2.003t-.285 2.092V22.29H5.34V4.425q0-2.16 1.74-2.295l.81-.03V.06q-.825-.27-1.515-.27"/></symbol><symbol id="c" overflow="visible"><path d="M8.535-.3q-3.27 0-5.242 2.078Q1.32 3.855 1.32 7.68q0 2.445.855 4.268t2.468 2.842 3.907 1.02q3.27 0 5.22-2.13t1.95-6q0-2.355-.825-4.155T12.465.712 8.535-.3m.015 2.475q1.98 0 2.993 1.538 1.012 1.537 1.012 4.057 0 1.545-.397 2.813-.398 1.267-1.283 2.017t-2.325.75q-2.01 0-3.03-1.515T4.5 7.77q0-1.515.405-2.79t1.297-2.04 2.348-.765"/></symbol><symbol id="d" overflow="visible"><path d="M2.175-4.83v20.34h3.21l.03-2.58q.39.66 1.058 1.328.667.667 1.65 1.11.982.442 2.302.442 2.745 0 4.478-1.92t1.732-5.955q0-4.05-1.755-6.142T10.155-.3Q8.88-.3 7.943.158q-.938.457-1.56 1.147T5.4 2.67v-7.5zM9.48 2.145q1.785 0 2.933 1.387t1.147 4.343q0 2.535-1.057 4.013-1.058 1.477-3.023 1.477-2.04 0-3.067-1.538-1.028-1.537-1.028-3.952 0-1.575.458-2.873.457-1.297 1.372-2.077t2.265-.78"/></symbol><symbol id="e" overflow="visible"><path d="m.39-.99 7.53 22.68h2.4L2.79-.99z"/></symbol><symbol id="f" overflow="visible"><path d="M10.875-.3q-4.38 0-6.255 2.145t-1.875 6.12V21.69H6.06V7.56q0-2.58 1.26-3.833 1.26-1.252 3.555-1.252 2.28 0 3.585 1.245t1.305 3.84v14.13h3.255V7.71q0-3.81-1.912-5.91-1.913-2.1-6.233-2.1"/></symbol><symbol id="g" overflow="visible"><path d="M2.175 0v15.51H5.31v-2.235q.555.93 1.733 1.68t3.022.75q1.455 0 2.693-.577 1.237-.578 1.987-1.8.75-1.223.75-3.158V0h-3.21v9.825q0 1.665-.9 2.475t-2.295.81q-.96 0-1.807-.315-.848-.315-1.373-.953t-.525-1.597V0z"/></symbol><symbol id="h" overflow="visible"><path d="M2.175 18.51v3.165H5.4V18.51zM2.25 0v15.51h3.09V0z"/></symbol><symbol id="i" overflow="visible"><path d="M6.3 0 .63 15.51H3.6L7.53 4.065h.21l3.93 11.445h2.97L9 0z"/></symbol><symbol id="j" overflow="visible"><path d="M8.895-.3Q6.69-.3 5.01.653q-1.68.952-2.617 2.722T1.454 7.59q0 2.415.855 4.268t2.467 2.902 3.908 1.05q3.36 0 5.138-2.107T15.6 8.07V7.005H4.68q-.015-2.085 1.028-3.48T8.82 2.13q1.395 0 2.408.63t1.327 1.875h2.97q-.285-1.605-1.275-2.7T11.843.27 8.895-.3M4.68 9.09h7.86q0 1.83-.952 3.098-.953 1.267-2.918 1.267-1.335 0-2.228-.645-.892-.645-1.327-1.65T4.68 9.09"/></symbol><symbol id="k" overflow="visible"><path d="M2.175 0v15.51H5.25v-3.18q.57 1.71 1.838 2.595 1.267.885 2.842.885.3 0 .593-.037.292-.038.457-.128v-3.09q-.195.09-.503.12-.307.03-.532.045-2.055.15-3.308-.705T5.385 9.33V0z"/></symbol><symbol id="l" overflow="visible"><path d="M7.95-.3q-1.635 0-3.045.518-1.41.517-2.362 1.597T1.35 4.62h2.865q.3-1.335 1.343-1.965t2.377-.63q1.47 0 2.385.533.915.532.915 1.642 0 1.515-2.04 1.98l-3.09.735q-1.92.435-3.075 1.418T1.86 11.1q0 2.055 1.53 3.383t4.545 1.327q2.61 0 4.208-1.17 1.597-1.17 1.657-3.39h-2.775q-.165 1.065-.975 1.673-.81.607-2.145.607-1.395 0-2.272-.547-.878-.548-.878-1.673 0-.765.645-1.207t1.935-.728l2.94-.735q1.515-.39 2.333-1.11.817-.72 1.14-1.56t.322-1.59q0-2.19-1.635-3.435T7.95-.3"/></symbol><symbol id="m" overflow="visible"><path d="M8.13-.105q-1.725 0-2.67.465T4.14 1.703t-.375 2.122V13.2h-2.52v2.31H3.87l.78 4.56h2.34v-4.545h3.48V13.2H6.99l.015-9.255q0-1.14.375-1.403.375-.262 1.365-.262h1.8V.195q-.3-.12-.892-.21T8.13-.105"/></symbol><symbol id="n" overflow="visible"><path d="M3.96-4.95q-1.425 0-1.972.21l-.548.21v2.07l1.575-.03q1.2-.06 1.845.21t.922.675.413.75L6.675.45.63 15.51h3.21L8.19 4.05l4.335 11.46h3.135L9.195-.87q-.99-2.43-2.28-3.255T3.96-4.95"/></symbol></defs></svg>